<mxfile host="app.diagrams.net" modified="2021-06-13T11:02:05.596Z" agent="5.0 (Windows NT 10.0; Win64; x64) AppleWebKit/537.36 (KHTML, like Gecko) Chrome/91.0.4472.77 Safari/537.36" etag="WfUtEzfMjJzLG6zv3I_7" version="14.7.5" type="github">
  <diagram id="78gjwA7POGAzfZKH7C0p" name="Page-1">
    <mxGraphModel dx="1022" dy="436" grid="1" gridSize="10" guides="1" tooltips="1" connect="1" arrows="1" fold="1" page="1" pageScale="1" pageWidth="850" pageHeight="1100" math="0" shadow="0">
      <root>
        <mxCell id="0" />
        <mxCell id="1" parent="0" />
        <mxCell id="boYDM39vq4Dtdf2F9-v5-1" value="" style="swimlane;startSize=0;" vertex="1" parent="1">
          <mxGeometry x="50" y="80" width="750" height="520" as="geometry" />
        </mxCell>
        <mxCell id="boYDM39vq4Dtdf2F9-v5-2" value="ecomm-api&lt;br&gt;[Container]" style="text;html=1;strokeColor=none;fillColor=none;align=center;verticalAlign=middle;whiteSpace=wrap;rounded=0;" vertex="1" parent="boYDM39vq4Dtdf2F9-v5-1">
          <mxGeometry x="30" y="490" width="70" height="20" as="geometry" />
        </mxCell>
        <mxCell id="boYDM39vq4Dtdf2F9-v5-4" value="Business Service&lt;br&gt;Add Business, remove business, add catalog item, remove catalog item" style="rounded=0;whiteSpace=wrap;html=1;fillColor=#1ba1e2;strokeColor=#006EAF;fontColor=#ffffff;" vertex="1" parent="boYDM39vq4Dtdf2F9-v5-1">
          <mxGeometry x="490" y="30" width="170" height="130" as="geometry" />
        </mxCell>
        <mxCell id="boYDM39vq4Dtdf2F9-v5-5" value="Business User Service&lt;br&gt;&lt;br&gt;Registration, login, forgot password,&lt;br&gt;" style="rounded=0;whiteSpace=wrap;html=1;fillColor=#1ba1e2;strokeColor=#006EAF;fontColor=#ffffff;" vertex="1" parent="boYDM39vq4Dtdf2F9-v5-1">
          <mxGeometry x="580" y="210" width="120" height="150" as="geometry" />
        </mxCell>
        <mxCell id="boYDM39vq4Dtdf2F9-v5-6" value="&lt;font&gt;&lt;font style=&quot;font-size: 14px&quot;&gt;Order Service&lt;/font&gt;&lt;br&gt;&lt;span style=&quot;font-size: 10px&quot;&gt;[Component: Spring MVC, Order Controller,&lt;/span&gt;&lt;br&gt;&lt;span style=&quot;font-size: 10px&quot;&gt;Cart Controller, Payment Controller]&lt;/span&gt;&lt;br&gt;&lt;/font&gt;&lt;br&gt;Adds or removes cart items, places order, confirms order, gets order history, gets current order status, updates order status, computes payment" style="rounded=0;whiteSpace=wrap;html=1;fillColor=#1ba1e2;strokeColor=#006EAF;fontColor=#ffffff;" vertex="1" parent="boYDM39vq4Dtdf2F9-v5-1">
          <mxGeometry x="316" y="210" width="184" height="160" as="geometry" />
        </mxCell>
        <mxCell id="boYDM39vq4Dtdf2F9-v5-7" value="Reporting Service&lt;br&gt;&lt;br&gt;Financial Report" style="rounded=0;whiteSpace=wrap;html=1;fillColor=#1ba1e2;strokeColor=#006EAF;fontColor=#ffffff;" vertex="1" parent="boYDM39vq4Dtdf2F9-v5-1">
          <mxGeometry x="30" y="160" width="120" height="60" as="geometry" />
        </mxCell>
        <mxCell id="boYDM39vq4Dtdf2F9-v5-3" value="Customer Service&lt;br&gt;&lt;br&gt;Registration, login, forgot password" style="rounded=0;whiteSpace=wrap;html=1;fillColor=#1ba1e2;strokeColor=#006EAF;fontColor=#ffffff;" vertex="1" parent="boYDM39vq4Dtdf2F9-v5-1">
          <mxGeometry x="310" y="30" width="150" height="130" as="geometry" />
        </mxCell>
      </root>
    </mxGraphModel>
  </diagram>
</mxfile>
